# xmcd CD database file
#
# Track frame offsets:
#	150
#	11588
#	21503
#	34526
#	45366
#	55969
#	71556
#	81596
#	93610
#	108885
#	122161
#	136499
#	145545
#	157780
#	168579
#	181811
#	196076
#	209523
#	220471
#	232608
#
# Disc length: 3285 seconds
#
# Revision: 1
# Processed by: cddbd v1.5.2PL0 Copyright (c) Steve Scherf et al.
# Submitted via: CDex 1.51
#
DISCID=0f0cd314
DTITLE=Various Artist - Northern Soul: The Ultimate Collection [Union Square] CD1
DYEAR=2018
DGENRE=Soul/R&B
TTITLE0=Frank Wilson - Do I Love You (Indeed I Do)
TTITLE1=Gloria Jones - Tainted Love
TTITLE2=Dobie Gray - Out On The Floor
TTITLE3=R. Dean Taylor - There's A Ghost In My House
TTITLE4=The Marvelettes - I'll Keep Holding On
TTITLE5=Marlena Shaw - Let's Wade In The Water
TTITLE6=Tony Clarke - Landslide
TTITLE7=Willie Hutch - Love Runs Out
TTITLE8=Micky Moonshine - Name It You Got It
TTITLE9=Sidney Barnes - I Hurt On The Other Side
TTITLE10=Tommy Hunt - Loving On The Losing Side
TTITLE11=Joe Simon - The Girl's Alright With Me
TTITLE12=The Contours - Just A Little Misunderstanding
TTITLE13=Earl Jackson - Soul Self Satisfaction
TTITLE14=The Isley Brothers - Sure Is A Lot Of Woman
TTITLE15=Danny Monday - Baby, Without You
TTITLE16=The Heartstoppers - Marching Out Of Your Life
TTITLE17=Dusty Springfield - Live It Up
TTITLE18=Martha Reeves and The Vandellas - Show Me The Way
TTITLE19=The Originals - Suspicion
EXTD=YEAR: 2018
EXTT0=
EXTT1=
EXTT2=
EXTT3=
EXTT4=
EXTT5=
EXTT6=
EXTT7=
EXTT8=
EXTT9=
EXTT10=
EXTT11=
EXTT12=
EXTT13=
EXTT14=
EXTT15=
EXTT16=
EXTT17=
EXTT18=
EXTT19=
PLAYORDER=
